# xmcd CD database file
#
# Track frame offsets:
#	150
#	16841
#	43160
#	62716
#	81395
#	97695
#	108931
#	122808
#	136866
#	151773
#	167137
#	189102
#	205770
#	227576
#	248667
#	262250
#
# Disc length: 3684 seconds
#
# Revision: 0
# Processed by: cddbd v1.5.2PL0 Copyright (c) Steve Scherf et al.
# Submitted via: ACXtractor (MTCDDB.DLL V2003.07.15)
#
DISCID=c70e6210
DTITLE=Toyota Muster - Its our Backyard
DYEAR=2002
DGENRE=Country
TTITLE0=New England Highway/ Adam Brand
TTITLE1=Rockabilly Fever/ Beccy Cole
TTITLE2=Big Springs/ Darren Coggan
TTITLE3=Breaking Down/ Crakajak
TTITLE4=In Control (& Lovin' It)/ Casey Whatt
TTITLE5=Sarah/ Dan Brodie and Broken Arrow
TTITLE6=1848 Days/ Barramundi Bros
TTITLE7=Picture Show/ Kerry Kennedy
TTITLE8=Drive for a Livin'/ Chrome Daddies
TTITLE9=Whatever it Takes/ Chris Callaghan
TTITLE10=This is Life/ Felicity
TTITLE11=Big River/ Kim Cheshire
TTITLE12=Don't feel Right/ The Flood
TTITLE13=Where in the World/ Lyn Bowtell
TTITLE14=She Drinks to Remember/ Hunter and Suzy Owens Band
TTITLE15=Maria's Eyes/ Bluegrass Parkway
EXTD=ID3G:   2 YEAR: 2002
EXTT0=
EXTT1=
EXTT2=
EXTT3=
EXTT4=
EXTT5=
EXTT6=
EXTT7=
EXTT8=
EXTT9=
EXTT10=
EXTT11=
EXTT12=
EXTT13=
EXTT14=
EXTT15=
PLAYORDER=
